<?xml version="1.0" encoding="UTF-8"?>
<svg version="1.1" xmlns="http://www.w3.org/2000/svg" width="111" height="106">
<path d="M0 0 C36.63 0 73.26 0 111 0 C111 34.98 111 69.96 111 106 C74.37 106 37.74 106 0 106 C0 71.02 0 36.04 0 0 Z " fill="#FCFCFC" transform="translate(0,0)"/>
<path d="M0 0 C0.93199219 -0.00257812 1.86398438 -0.00515625 2.82421875 -0.0078125 C3.80003906 -0.00007812 4.77585937 0.00765625 5.78125 0.015625 C6.75707031 0.00789062 7.73289062 0.00015625 8.73828125 -0.0078125 C9.67027344 -0.00523438 10.60226563 -0.00265625 11.5625 0 C12.41908203 0.00225586 13.27566406 0.00451172 14.15820312 0.00683594 C16.28125 0.265625 16.28125 0.265625 18.28125 2.265625 C18.50830078 5.06298828 18.50830078 5.06298828 18.4765625 8.5859375 C18.47011719 9.84277344 18.46367188 11.09960938 18.45703125 12.39453125 C18.44027344 13.71324219 18.42351563 15.03195313 18.40625 16.390625 C18.39621983 17.73046221 18.38709404 19.07030652 18.37890625 20.41015625 C18.35527075 23.69549073 18.32232234 26.98046965 18.28125 30.265625 C18.90692871 30.25515137 19.53260742 30.24467773 20.17724609 30.23388672 C23.0035401 30.19239309 25.82977011 30.16632027 28.65625 30.140625 C29.64109375 30.12386719 30.6259375 30.10710938 31.640625 30.08984375 C33.05214844 30.08017578 33.05214844 30.08017578 34.4921875 30.0703125 C35.36149902 30.05983887 36.23081055 30.04936523 37.12646484 30.03857422 C39.28125 30.265625 39.28125 30.265625 41.28125 32.265625 C41.50830078 34.69580078 41.50830078 34.69580078 41.4765625 37.7109375 C41.47011719 38.78730469 41.46367188 39.86367188 41.45703125 40.97265625 C41.44027344 42.10058594 41.42351562 43.22851562 41.40625 44.390625 C41.39722656 45.52628906 41.38820312 46.66195312 41.37890625 47.83203125 C41.35528098 50.64343799 41.32234013 53.45442798 41.28125 56.265625 C38.73849451 57.53700274 36.93316799 57.39505 34.08984375 57.3984375 C33.06310547 57.39972656 32.03636719 57.40101562 30.97851562 57.40234375 C29.90279297 57.39847656 28.82707031 57.39460938 27.71875 57.390625 C26.63916016 57.39449219 25.55957031 57.39835937 24.44726562 57.40234375 C22.9090918 57.40041016 22.9090918 57.40041016 21.33984375 57.3984375 C20.39423584 57.39730957 19.44862793 57.39618164 18.47436523 57.39501953 C16.28125 57.265625 16.28125 57.265625 15.28125 56.265625 C15.19366997 54.26597518 15.17428424 52.2632639 15.18359375 50.26171875 C15.18681641 49.04677734 15.19003906 47.83183594 15.19335938 46.58007812 C15.20173828 45.30068359 15.21011719 44.02128906 15.21875 42.703125 C15.22326172 41.41986328 15.22777344 40.13660156 15.23242188 38.81445312 C15.24425445 35.6314908 15.26219056 32.44855226 15.28125 29.265625 C8.35125 29.265625 1.42125 29.265625 -5.71875 29.265625 C-7.83564593 25.03183314 -6.90368005 19.41722718 -6.90625 14.765625 C-6.91849609 13.59902344 -6.93074219 12.43242187 -6.94335938 11.23046875 C-6.94529297 10.11800781 -6.94722656 9.00554688 -6.94921875 7.859375 C-6.95332764 6.83521484 -6.95743652 5.81105469 -6.96166992 4.75585938 C-6.50628814 0.08762405 -4.09026542 0.01077196 0 0 Z " fill="#2D3672" transform="translate(24.71875,13.734375)"/>
<path d="M0 0 C0.97130859 0.00322266 1.94261719 0.00644531 2.94335938 0.00976562 C3.91080078 -0.00634766 4.87824219 -0.02246094 5.875 -0.0390625 C6.80376953 -0.03970703 7.73253906 -0.04035156 8.68945312 -0.04101562 C9.54079834 -0.04399658 10.39214355 -0.04697754 11.26928711 -0.05004883 C13.50585938 0.32226562 13.50585938 0.32226562 15.27978516 1.50512695 C17.91641036 5.41281341 16.97251442 10.77407861 16.94335938 15.32226562 C16.97333008 16.98128906 16.97333008 16.98128906 17.00390625 18.67382812 C17.00326172 19.7334375 17.00261719 20.79304688 17.00195312 21.88476562 C17.00473267 23.34076172 17.00473267 23.34076172 17.00756836 24.82617188 C16.50585938 27.32226562 16.50585938 27.32226562 14.76831055 29.14160156 C12.21245492 30.47537925 10.67731424 30.68370509 7.81054688 30.65039062 C6.93011719 30.64523438 6.0496875 30.64007813 5.14257812 30.63476562 C4.23121094 30.61414063 3.31984375 30.59351562 2.38085938 30.57226562 C1.46175781 30.56710938 0.54265625 30.56195313 -0.40429688 30.55664062 C-7.18469514 30.47698837 -7.18469514 30.47698837 -9.49414062 29.32226562 C-9.55197103 24.86398636 -9.58767917 20.40580283 -9.61914062 15.94726562 C-9.63589844 14.67625 -9.65265625 13.40523437 -9.66992188 12.09570312 C-9.67636719 10.88398437 -9.6828125 9.67226562 -9.68945312 8.42382812 C-9.70516357 6.74281006 -9.70516357 6.74281006 -9.72119141 5.02783203 C-9.21746391 -0.97464979 -4.82516767 0.03688453 0 0 Z " fill="#333B75" transform="translate(73.494140625,72.677734375)"/>
<path d="M0 0 C3.35286458 0.03255208 6.70572917 0.06510417 10.05859375 0.09765625 C10.05859375 6.69765625 10.05859375 13.29765625 10.05859375 20.09765625 C5.10859375 20.59265625 5.10859375 20.59265625 0.05859375 21.09765625 C-0.03228516 23.02931641 -0.03228516 23.02931641 -0.125 25 C-0.20938872 26.67839784 -0.29403755 28.35678261 -0.37890625 30.03515625 C-0.41822266 30.88529297 -0.45753906 31.73542969 -0.49804688 32.61132812 C-0.53994141 33.42021484 -0.58183594 34.22910156 -0.625 35.0625 C-0.66165771 35.81136475 -0.69831543 36.56022949 -0.73608398 37.33178711 C-0.94140625 39.09765625 -0.94140625 39.09765625 -1.94140625 40.09765625 C-4.45276729 40.19740657 -6.9304404 40.23647808 -9.44140625 40.22265625 C-10.14394531 40.22652344 -10.84648438 40.23039062 -11.5703125 40.234375 C-16.81479247 40.22427003 -16.81479247 40.22427003 -17.94140625 39.09765625 C-18.04000756 37.6941689 -18.07219562 36.28585148 -18.07421875 34.87890625 C-18.07550781 34.02941406 -18.07679687 33.17992187 -18.078125 32.3046875 C-18.07425781 31.41136719 -18.07039063 30.51804687 -18.06640625 29.59765625 C-18.07027344 28.70433594 -18.07414062 27.81101562 -18.078125 26.890625 C-18.07683594 26.04113281 -18.07554688 25.19164063 -18.07421875 24.31640625 C-18.07309082 23.53201172 -18.07196289 22.74761719 -18.07080078 21.93945312 C-17.94140625 20.09765625 -17.94140625 20.09765625 -16.94140625 19.09765625 C-14.92546043 18.86337847 -12.90293225 18.68429501 -10.87890625 18.53515625 C-9.22181641 18.40947266 -9.22181641 18.40947266 -7.53125 18.28125 C-6.67660156 18.22066406 -5.82195312 18.16007812 -4.94140625 18.09765625 C-4.88082031 16.88207031 -4.82023437 15.66648437 -4.7578125 14.4140625 C-4.67342293 12.82941397 -4.58877415 11.24477923 -4.50390625 9.66015625 C-4.46458984 8.85771484 -4.42527344 8.05527344 -4.38476562 7.22851562 C-3.99554115 0.13265409 -3.99554115 0.13265409 0 0 Z " fill="#A20405" transform="translate(100.94140625,29.90234375)"/>
<path d="M0 0 C0.33 0 0.66 0 1 0 C1.33 6.27 1.66 12.54 2 19 C6.29 19.33 10.58 19.66 15 20 C15 20.33 15 20.66 15 21 C12.52076199 21.02685095 10.0418116 21.04676547 7.5625 21.0625 C6.85544922 21.07087891 6.14839844 21.07925781 5.41992188 21.08789062 C3.61306441 21.09653588 1.80612397 21.05220011 0 21 C-1.55606751 19.44393249 -1.12970769 17.94042629 -1.1328125 15.78125 C-1.13410156 14.93175781 -1.13539062 14.08226562 -1.13671875 13.20703125 C-1.13285156 12.31371094 -1.12898438 11.42039062 -1.125 10.5 C-1.12886719 9.60667969 -1.13273437 8.71335937 -1.13671875 7.79296875 C-1.13542969 6.94347656 -1.13414063 6.09398437 -1.1328125 5.21875 C-1.13168457 4.43435547 -1.13055664 3.64996094 -1.12939453 2.84179688 C-1 1 -1 1 0 0 Z " fill="#AE4140" transform="translate(84,49)"/>
<path d="M0 0 C1.79244141 0.01740234 1.79244141 0.01740234 3.62109375 0.03515625 C5.41740234 0.04869141 5.41740234 0.04869141 7.25 0.0625 C8.17683594 0.07410156 9.10367188 0.08570312 10.05859375 0.09765625 C10.05859375 0.42765625 10.05859375 0.75765625 10.05859375 1.09765625 C9.35992187 1.21882813 8.66125 1.34 7.94140625 1.46484375 C6.57628906 1.71621094 6.57628906 1.71621094 5.18359375 1.97265625 C4.27867188 2.13507812 3.37375 2.2975 2.44140625 2.46484375 C-0.10646613 2.92810328 -0.10646613 2.92810328 -1.94140625 5.09765625 C-2.58908418 7.66826936 -2.58908418 7.66826936 -2.94140625 10.09765625 C-3.27140625 10.09765625 -3.60140625 10.09765625 -3.94140625 10.09765625 C-3.96829841 8.61858733 -3.98775246 7.13938142 -4.00390625 5.66015625 C-4.01550781 4.83644531 -4.02710937 4.01273438 -4.0390625 3.1640625 C-3.88296719 -0.13891421 -3.35803623 0.11148859 0 0 Z " fill="#A22324" transform="translate(100.94140625,29.90234375)"/>
</svg>
